<svg xmlns="http://www.w3.org/2000/svg" x="0px" y="0px" viewBox="0 0 864 864" enable-background="new 0 0 864 864"><style>.fs0,.ls0{fill:#231f20}</style><g><path class="ls0" d="M298.2,595.3c-4.5-8.8-7-18.6-7-28.7V370.2v-53v-9l5.6,4.5l32.8,26.5l32.8-26.5l7.8-6.3V319v53v191.5v30.2v45	V662v61.4l47,39.4v-61.4V618v-45v-30.2V409.9v-33.7V357v-78.6v-47h-19.7l-27.3,22l-30.9,25l-9.7,7.8l-9.7-7.8l-28.7-23.2l-29.5-23.8	h-17.5v38.8v8.2v76.8v53v158.4c0,16.7,3.8,33,11,47.7L298.2,595.3z"/><path class="ls0" d="M567.8,553.6l-53.4-43.1L501,548.8l-12.2,35v-44.9v-49.1V278.4v-47h-47v47v173.5V501v200.5v17v44.3l35.7-30	l11.3-32.3l19-54.5l25-71.6l27.4,22.1l36.9,29.8c7.3-11.2,12.5-23.7,15.3-36.8c1.6-7.5,2.5-15.2,2.5-23V278.4h-47V553.6z"/></g><g><path class="fs0" d="M244.2,164.3h370.5v47H244.2V164.3z"/><path class="fs0" d="M244.2,97.2h370.5v47H244.2V97.2z"/><path class="fs0" d="M206.7,59.7v506.8c0,43.5,19.2,84.6,52.6,112.7L429.5,822l170.2-142.8c33.4-28,52.6-69.1,52.6-112.7V59.7H206.7	z M637.2,566.6c0,39.1-17.2,76-47.2,101.2L429.5,802.5L268.9,667.7c-30-25.2-47.2-62-47.2-101.2V74.7h415.5V566.6z"/></g></svg>